# Blender v2.92.0 OBJ File: 'tetracubes.blend'
# www.blender.org
o L_Cube.003
v -1.150000 0.850000 -1.000000
v -1.150000 1.000000 -0.850000
v -1.000000 0.850000 -0.850000
v -1.150000 -1.000000 -0.850000
v -1.150000 -0.850000 -1.000000
v -1.000000 0.850000 0.850000
v -1.150000 1.000000 0.850000
v -1.150000 0.850000 1.000000
v -1.000000 -0.850000 0.850000
v -1.150000 -0.850000 1.000000
v -1.150000 -1.000000 0.850000
v -2.850000 0.850000 -1.000000
v -3.000000 0.850000 -0.850000
v -2.850000 1.000000 -0.850000
v -3.000000 -0.850000 -0.850000
v -2.850000 -0.850000 -1.000000
v -2.850000 -1.000000 -0.850000
v -3.000000 0.850000 0.850000
v -2.850000 0.850000 1.000000
v -2.850000 1.000000 0.850000
v -2.850000 -1.000000 0.850000
v -2.850000 -0.850000 1.000000
v -3.000000 -0.850000 0.850000
v 0.850000 0.850000 -1.000000
v 0.850000 1.000000 -0.850000
v 0.850000 -1.000000 -0.850000
v 0.850000 -0.850000 -1.000000
v 0.850000 1.000000 0.850000
v 0.850000 0.850000 1.000000
v 0.850000 -0.850000 1.000000
v 0.850000 -1.000000 0.850000
v -0.850000 0.850000 -1.000000
v -0.850000 1.000000 -0.850000
v -1.000000 -0.850000 -0.850000
v -0.850000 -0.850000 -1.000000
v -0.850000 -1.000000 -0.850000
v -0.850000 0.850000 1.000000
v -0.850000 1.000000 0.850000
v -0.850000 -1.000000 0.850000
v -0.850000 -0.850000 1.000000
v 2.850000 0.850000 -1.000000
v 2.850000 1.000000 -0.850000
v 3.000000 0.850000 -0.850000
v 2.850000 -1.000000 -0.850000
v 2.850000 -0.850000 -1.000000
v 3.000000 -0.850000 -0.850000
v 3.000000 0.850000 0.850000
v 2.850000 1.000000 0.850000
v 2.850000 0.850000 1.000000
v 3.000000 -0.850000 0.850000
v 2.850000 -0.850000 1.000000
v 2.850000 -1.000000 0.850000
v 1.150000 0.850000 -1.000000
v 1.000000 0.850000 -0.850000
v 1.150000 1.000000 -0.850000
v 1.000000 -0.850000 -0.850000
v 1.150000 -0.850000 -1.000000
v 1.150000 -1.000000 -0.850000
v 1.000000 0.850000 0.850000
v 1.150000 0.850000 1.000000
v 1.150000 1.000000 0.850000
v 1.150000 -1.000000 0.850000
v 1.150000 -0.850000 1.000000
v 1.000000 -0.850000 0.850000
v 2.850000 2.850000 -1.000000
v 2.850000 3.000000 -0.850000
v 3.000000 2.850000 -0.850000
v 2.850000 1.150001 -1.000000
v 3.000000 1.150001 -0.850000
v 3.000000 2.850000 0.850000
v 2.850000 3.000000 0.850000
v 2.850000 2.850000 1.000000
v 3.000000 1.150001 0.850000
v 2.850000 1.150001 1.000000
v 1.150000 2.850000 -1.000000
v 1.000000 2.850000 -0.850000
v 1.150000 3.000000 -0.850000
v 1.000000 1.150001 -0.850000
v 1.150000 1.150001 -1.000000
v 1.000000 2.850000 0.850000
v 1.150000 2.850000 1.000000
v 1.150000 3.000000 0.850000
v 1.150000 1.150001 1.000000
v 1.000000 1.150001 0.850000
vt 0.356250 0.518750
vt 0.143750 0.731250
vt 0.143750 0.518750
vt 0.606250 0.018750
vt 0.393750 0.231250
vt 0.393750 0.018750
vt 0.606250 0.268750
vt 0.393750 0.481250
vt 0.393750 0.268750
vt 0.606250 0.768750
vt 0.393750 0.981250
vt 0.393750 0.768750
vt 0.856250 0.518750
vt 0.643750 0.731250
vt 0.643750 0.518750
vt 0.356250 0.518750
vt 0.143750 0.731250
vt 0.143750 0.518750
vt 0.606250 0.268750
vt 0.393750 0.481250
vt 0.393750 0.268750
vt 0.606250 0.768750
vt 0.393750 0.981250
vt 0.393750 0.768750
vt 0.856250 0.518750
vt 0.643750 0.731250
vt 0.643750 0.518750
vt 0.356250 0.518750
vt 0.143750 0.731250
vt 0.143750 0.518750
vt 0.606250 0.268750
vt 0.393750 0.481250
vt 0.393750 0.268750
vt 0.606250 0.768750
vt 0.393750 0.981250
vt 0.393750 0.768750
vt 0.606250 0.518750
vt 0.393750 0.731250
vt 0.393750 0.518750
vt 0.606250 0.018750
vt 0.393750 0.231250
vt 0.393750 0.018750
vt 0.606250 0.768750
vt 0.393750 0.981250
vt 0.393750 0.768750
vt 0.856250 0.518750
vt 0.643750 0.731250
vt 0.643750 0.518750
vt 0.606250 0.518750
vt 0.393750 0.731250
vt 0.393750 0.518750
vt 0.606250 0.481250
vt 0.625000 0.481250
vt 0.606250 0.500000
vt 0.356250 0.500000
vt 0.375000 0.518750
vt 0.606250 0.731250
vt 0.625000 0.731250
vt 0.606250 0.750000
vt 0.393750 0.750000
vt 0.375000 0.768750
vt 0.375000 0.768750
vt 0.606250 0.250000
vt 0.606250 0.250000
vt 0.625000 0.231250
vt 0.393750 0.250000
vt 0.375000 0.231250
vt 0.606250 0.000000
vt 0.625000 0.018750
vt 0.143750 0.750000
vt 0.125000 0.731250
vt 0.606250 0.481250
vt 0.625000 0.481250
vt 0.606250 0.500000
vt 0.356250 0.500000
vt 0.375000 0.518750
vt 0.606250 0.731250
vt 0.625000 0.731250
vt 0.606250 0.750000
vt 0.393750 0.750000
vt 0.393750 0.750000
vt 0.375000 0.768750
vt 0.606250 0.250000
vt 0.606250 0.250000
vt 0.625000 0.231250
vt 0.393750 0.231250
vt 0.393750 0.250000
vt 0.375000 0.231250
vt 0.606250 0.018750
vt 0.606250 0.000000
vt 0.625000 0.018750
vt 0.143750 0.750000
vt 0.125000 0.731250
vt 0.606250 0.481250
vt 0.625000 0.481250
vt 0.606250 0.500000
vt 0.356250 0.500000
vt 0.375000 0.518750
vt 0.606250 0.731250
vt 0.625000 0.731250
vt 0.606250 0.750000
vt 0.393750 0.750000
vt 0.375000 0.768750
vt 0.375000 0.768750
vt 0.606250 0.250000
vt 0.606250 0.250000
vt 0.625000 0.231250
vt 0.393750 0.231250
vt 0.393750 0.250000
vt 0.375000 0.231250
vt 0.606250 0.018750
vt 0.606250 0.000000
vt 0.625000 0.018750
vt 0.143750 0.750000
vt 0.125000 0.731250
vt 0.606250 0.481250
vt 0.625000 0.481250
vt 0.606250 0.500000
vt 0.356250 0.518750
vt 0.356250 0.500000
vt 0.375000 0.518750
vt 0.606250 0.731250
vt 0.625000 0.731250
vt 0.606250 0.750000
vt 0.393750 0.750000
vt 0.375000 0.768750
vt 0.375000 0.768750
vt 0.606250 0.250000
vt 0.606250 0.250000
vt 0.625000 0.231250
vt 0.393750 0.250000
vt 0.375000 0.231250
vt 0.606250 0.000000
vt 0.625000 0.018750
vt 0.143750 0.731250
vt 0.143750 0.750000
vt 0.125000 0.731250
vt 0.125000 0.518750
vt 0.393750 0.518750
vt 0.606250 0.518750
vt 0.393750 0.000000
vt 0.393750 0.268750
vt 0.606250 0.231250
vt 0.606250 0.268750
vt 0.625000 0.981250
vt 0.625000 0.768750
vt 0.356250 0.731250
vt 0.625000 0.268750
vt 0.393750 0.731250
vt 0.125000 0.518750
vt 0.393750 0.518750
vt 0.606250 0.518750
vt 0.393750 0.018750
vt 0.393750 0.000000
vt 0.606250 0.231250
vt 0.625000 0.981250
vt 0.625000 0.768750
vt 0.356250 0.731250
vt 0.625000 0.268750
vt 0.393750 0.731250
vt 0.125000 0.518750
vt 0.393750 0.018750
vt 0.393750 0.000000
vt 0.606250 0.231250
vt 0.625000 0.981250
vt 0.625000 0.768750
vt 0.643750 0.731250
vt 0.643750 0.518750
vt 0.356250 0.731250
vt 0.625000 0.268750
vt 0.125000 0.518750
vt 0.143750 0.518750
vt 0.393750 0.000000
vt 0.606250 0.231250
vt 0.625000 0.981250
vt 0.625000 0.768750
vt 0.356250 0.731250
vt 0.625000 0.268750
vt 0.393750 0.481250
vt 0.606250 0.981250
vt 0.856250 0.731250
vt 0.606250 0.981250
vt 0.856250 0.731250
vt 0.606250 0.981250
vt 0.606250 0.981250
vt 0.856250 0.731250
vt 0.143750 0.500000
vt 0.356250 0.750000
vt 0.143750 0.500000
vt 0.356250 0.750000
vt 0.143750 0.500000
vt 0.356250 0.750000
vt 0.143750 0.500000
vt 0.356250 0.750000
vn 0.3416 -0.8756 -0.3416
vn -0.3416 -0.8756 0.3416
vn -0.3416 -0.8756 -0.3416
vn -0.8756 0.3416 0.3416
vn -0.8756 -0.3416 -0.3416
vn -0.8756 -0.3416 0.3416
vn -0.3416 0.3416 -0.8756
vn 0.3416 -0.3416 -0.8756
vn -0.3416 -0.3416 -0.8756
vn 0.3416 0.3416 0.8756
vn -0.3416 -0.3416 0.8756
vn 0.3416 -0.3416 0.8756
vn -0.3416 0.8756 -0.3416
vn 0.3416 0.8756 0.3416
vn 0.3416 0.8756 -0.3416
vn 0.8756 0.3416 -0.3416
vn 0.8756 -0.3416 0.3416
vn 0.8756 -0.3416 -0.3416
vn 0.3416 0.3416 -0.8756
vn 0.0000 0.7071 -0.7071
vn 0.0000 -0.7071 -0.7071
vn 0.0000 0.7071 0.7071
vn 0.0000 -0.7071 0.7071
vn 0.3416 -0.8756 0.3416
vn -0.8756 0.3416 -0.3416
vn -0.3416 0.3416 0.8756
vn -0.3416 0.8756 0.3416
vn 0.7071 0.0000 -0.7071
vn 0.8756 0.3416 0.3416
vn 0.7071 0.0000 0.7071
vn -0.7071 0.0000 -0.7071
vn -0.7071 0.0000 0.7071
s 1
f 4/1/1 21/2/2 17/3/3
f 18/4/4 15/5/5 23/6/6
f 32/7/7 27/8/8 35/9/9
f 8/10/10 22/11/11 10/12/12
f 14/13/13 7/14/14 2/15/15
f 26/16/1 39/17/2 36/18/3
f 53/19/7 45/20/8 57/21/9
f 29/22/10 40/23/11 30/24/12
f 33/25/13 28/26/14 25/27/15
f 44/28/1 62/29/2 58/30/3
f 75/31/7 68/32/8 79/33/9
f 49/34/10 63/35/11 51/36/12
f 43/37/16 50/38/17 46/39/18
f 80/40/4 78/41/5 84/42/6
f 72/43/10 83/44/11 74/45/12
f 77/46/13 71/47/14 66/48/15
f 67/49/16 73/50/17 69/51/18
f 1/52/19 2/53/15 3/54/20
f 4/1/1 5/55/8 34/56/21
f 6/57/22 7/58/14 8/59/10
f 9/60/23 10/61/12 11/62/24
f 12/63/7 13/64/25 14/65/13
f 15/5/5 16/66/9 17/67/3
f 18/4/4 19/68/26 20/69/27
f 21/2/2 22/70/11 23/71/6
f 24/72/19 25/73/15 54/74/20
f 26/16/1 27/75/8 56/76/21
f 59/77/22 28/78/14 29/79/10
f 64/80/23 30/81/12 31/82/24
f 32/83/7 3/84/20 33/85/13
f 34/86/21 35/87/9 36/88/3
f 6/89/22 37/90/26 38/91/27
f 39/17/2 40/92/11 9/93/23
f 41/94/19 42/95/28 43/96/16
f 44/28/1 45/97/8 46/98/18
f 47/99/29 48/100/30 49/101/10
f 50/102/17 51/103/12 52/104/24
f 53/105/7 54/106/20 55/107/31
f 56/108/21 57/109/9 58/110/3
f 59/111/22 60/112/26 61/113/32
f 62/29/2 63/114/11 64/115/23
f 65/116/19 66/117/15 67/118/16
f 42/119/28 68/120/8 69/121/18
f 70/122/29 71/123/14 72/124/10
f 73/125/17 74/126/12 48/127/30
f 75/128/7 76/129/25 77/130/13
f 78/41/5 79/131/9 55/132/31
f 80/40/4 81/133/26 82/134/27
f 61/135/32 83/136/11 84/137/6
f 21/2/2 15/138/5 17/3/3
f 17/3/3 5/55/8 4/1/1
f 34/139/21 1/52/19 3/140/20
f 19/68/26 23/6/6 22/141/11
f 10/12/12 6/57/22 8/10/10
f 16/142/9 13/143/25 12/144/7
f 20/145/27 8/10/10 7/146/14
f 7/14/14 3/140/20 2/15/15
f 11/147/24 22/70/11 21/2/2
f 14/65/13 18/4/4 20/69/27
f 2/53/15 12/144/7 14/148/13
f 4/1/1 9/149/23 11/147/24
f 39/17/2 34/150/21 36/18/3
f 36/18/3 27/75/8 26/16/1
f 56/151/21 24/72/19 54/152/20
f 37/90/26 9/153/23 40/154/11
f 30/24/12 59/77/22 29/22/10
f 35/9/9 3/155/20 32/7/7
f 38/156/27 29/22/10 28/157/14
f 28/26/14 54/152/20 25/27/15
f 31/158/24 40/92/11 39/17/2
f 33/85/13 6/89/22 38/91/27
f 25/73/15 32/7/7 33/159/13
f 26/16/1 64/160/23 31/158/24
f 62/29/2 56/161/21 58/30/3
f 58/30/3 45/97/8 44/28/1
f 46/39/18 41/94/19 43/37/16
f 60/112/26 64/162/23 63/163/11
f 51/36/12 47/99/29 49/34/10
f 57/21/9 54/164/20 53/19/7
f 61/165/32 49/34/10 48/166/30
f 48/167/30 43/37/16 42/168/28
f 52/169/24 63/114/11 62/29/2
f 55/107/31 59/111/22 61/113/32
f 42/95/28 53/19/7 55/170/31
f 44/28/1 50/38/17 52/169/24
f 61/135/32 78/171/5 55/172/31
f 55/172/31 68/120/8 42/119/28
f 69/51/18 65/116/19 67/49/16
f 81/133/26 84/42/6 83/173/11
f 74/45/12 70/122/29 72/43/10
f 79/33/9 76/174/25 75/31/7
f 82/175/27 72/43/10 71/176/14
f 71/47/14 67/49/16 66/48/15
f 48/177/30 83/136/11 61/135/32
f 77/130/13 80/40/4 82/134/27
f 66/117/15 75/31/7 77/178/13
f 42/119/28 73/50/17 48/177/30
f 12/144/7 5/179/8 16/142/9
f 4/1/1 11/147/24 21/2/2
f 18/4/4 13/143/25 15/5/5
f 32/7/7 24/72/19 27/8/8
f 8/10/10 19/180/26 22/11/11
f 14/13/13 20/181/27 7/14/14
f 26/16/1 31/158/24 39/17/2
f 53/19/7 41/94/19 45/20/8
f 29/22/10 37/182/26 40/23/11
f 33/25/13 38/183/27 28/26/14
f 44/28/1 52/169/24 62/29/2
f 75/31/7 65/116/19 68/32/8
f 49/34/10 60/184/26 63/35/11
f 43/37/16 47/99/29 50/38/17
f 80/40/4 76/174/25 78/41/5
f 72/43/10 81/185/26 83/44/11
f 77/46/13 82/186/27 71/47/14
f 67/49/16 70/122/29 73/50/17
f 21/2/2 23/71/6 15/138/5
f 17/3/3 16/187/9 5/55/8
f 34/139/21 5/179/8 1/52/19
f 19/68/26 18/4/4 23/6/6
f 10/12/12 9/149/23 6/57/22
f 16/142/9 15/5/5 13/143/25
f 20/145/27 19/180/26 8/10/10
f 7/14/14 6/57/22 3/140/20
f 11/147/24 10/188/12 22/70/11
f 14/65/13 13/143/25 18/4/4
f 2/53/15 1/52/19 12/144/7
f 4/1/1 34/139/21 9/149/23
f 39/17/2 9/93/23 34/150/21
f 36/18/3 35/189/9 27/75/8
f 56/151/21 27/8/8 24/72/19
f 37/90/26 6/89/22 9/153/23
f 30/24/12 64/160/23 59/77/22
f 35/9/9 34/86/21 3/155/20
f 38/156/27 37/182/26 29/22/10
f 28/26/14 59/77/22 54/152/20
f 31/158/24 30/190/12 40/92/11
f 33/85/13 3/155/20 6/89/22
f 25/73/15 24/72/19 32/7/7
f 26/16/1 56/151/21 64/160/23
f 62/29/2 64/115/23 56/161/21
f 58/30/3 57/191/9 45/97/8
f 46/39/18 45/20/8 41/94/19
f 60/112/26 59/111/22 64/162/23
f 51/36/12 50/38/17 47/99/29
f 57/21/9 56/108/21 54/164/20
f 61/165/32 60/184/26 49/34/10
f 48/167/30 47/99/29 43/37/16
f 52/169/24 51/192/12 63/114/11
f 55/107/31 54/164/20 59/111/22
f 42/95/28 41/94/19 53/19/7
f 44/28/1 46/39/18 50/38/17
f 61/135/32 84/137/6 78/171/5
f 55/172/31 79/193/9 68/120/8
f 69/51/18 68/32/8 65/116/19
f 81/133/26 80/40/4 84/42/6
f 74/45/12 73/50/17 70/122/29
f 79/33/9 78/41/5 76/174/25
f 82/175/27 81/185/26 72/43/10
f 71/47/14 70/122/29 67/49/16
f 48/177/30 74/194/12 83/136/11
f 77/130/13 76/174/25 80/40/4
f 66/117/15 65/116/19 75/31/7
f 42/119/28 69/51/18 73/50/17
f 12/144/7 1/52/19 5/179/8
